# xmcd
#
# Track frame offsets: 
#        150
#        15461
#        31667
#        49436
#        63775
#        81979
#        98929
#        114739
#        131421
#        148123
#        164727
#        181311
#        199075
#        217050
#        230817
#
# Disc length: 3327 seconds
#
# Revision: 0
# Processed by: cddbd v1.5.2PL0 Copyright (c) Steve Scherf et al.
# Submitted via: ExactAudioCopy v0.99pb4
#
DISCID=dc0cfd0f
DTITLE=Roger Cicero - Artgerecht
DYEAR=2009
DGENRE=Big Band
TTITLE0=Nicht artgerecht
TTITLE1=Ich bin dabei
TTITLE2=Boutique
TTITLE3=Hinterm Steuer
TTITLE4=Spontis zeugen Banker
TTITLE5=Und sonst so
TTITLE6=Wenn ich dich los wär
TTITLE7=Tabu
TTITLE8=Seine Ruhe
TTITLE9=Zu schön um nett zu sein
TTITLE10=Ohne Worte
TTITLE11=Das ist nicht das, wonach es aussieht
TTITLE12=Internet Single Börse
TTITLE13=Für 'nen Kerl
TTITLE14=nicht benannt
EXTD=
EXTT0=
EXTT1=
EXTT2=
EXTT3=
EXTT4=
EXTT5=
EXTT6=
EXTT7=
EXTT8=
EXTT9=
EXTT10=
EXTT11=
EXTT12=
EXTT13=
EXTT14=
PLAYORDER=
